<?xml version="1.0" standalone="no"?>
<!DOCTYPE svg PUBLIC "-//W3C//DTD SVG 20010904//EN"
 "http://www.w3.org/TR/2001/REC-SVG-20010904/DTD/svg10.dtd">
<svg version="1.0" xmlns="http://www.w3.org/2000/svg"
 width="401.000000pt" height="401.000000pt" viewBox="0 0 401.000000 401.000000"
 preserveAspectRatio="xMidYMid meet">
<metadata>
Created by potrace 1.11, written by Peter Selinger 2001-2013
</metadata>
<g transform="translate(0.000000,401.000000) scale(0.100000,-0.100000)"
fill="#000000" stroke="none">
<path d="M527 4002 c-12 -2 -17 -14 -17 -35 -1 -41 -1 -2938 0 -2954 0 -10
107 -13 500 -13 l500 0 0 500 0 500 500 0 500 0 0 500 0 500 500 0 500 0 0
500 c0 275 -3 500 -7 501 -31 2 -2963 3 -2976 1z"/>
<path d="M2827 2702 c-13 -3 -17 -15 -17 -50 -1 -26 -1 -250 -1 -499 l1 -452
-496 1 c-272 0 -498 -2 -501 -5 -2 -3 -5 -228 -5 -500 l-1 -495 -644 0 c-354
0 -646 -2 -649 -4 -4 -5 -8 -105 -5 -165 l1 -33 750 0 750 0 0 500 0 500 500
0 500 0 0 500 0 500 250 0 250 0 0 100 0 100 -27 0 c-253 3 -643 4 -656 2z"/>
<path d="M3370 2200 l-65 -5 0 -495 0 -495 -494 -2 c-271 -1 -495 -4 -498 -7
-3 -2 -5 -227 -5 -499 l1 -495 -645 1 c-355 0 -646 -2 -649 -4 -4 -4 -8 -113
-6 -166 l1 -33 750 0 750 0 0 500 0 500 500 0 500 0 0 600 c0 564 -1 600 -17
601 -10 0 -27 1 -38 2 -11 1 -49 0 -85 -3z"/>
<path d="M2827 702 c-19 -4 -18 24 -18 -367 0 -151 0 -288 0 -305 l1 -30 100
0 100 0 0 250 0 250 250 0 250 0 0 100 0 100 -32 1 c-163 2 -638 3 -651 1z"/>
</g>
</svg>
