<?xml version="1.0" standalone="no"?>
<!DOCTYPE svg PUBLIC "-//W3C//DTD SVG 20010904//EN"
 "http://www.w3.org/TR/2001/REC-SVG-20010904/DTD/svg10.dtd">
<svg version="1.0" xmlns="http://www.w3.org/2000/svg"
 width="1922.000000pt" height="1922.000000pt" viewBox="0 0 1922.000000 1922.000000"
 preserveAspectRatio="xMidYMid meet">
<metadata>
Created by potrace 1.11, written by Peter Selinger 2001-2013
</metadata>
<g transform="translate(0.000000,1922.000000) scale(0.100000,-0.100000)"
fill="#000000" stroke="none">
<path d="M2193 14043 c3 -2606 7 -4776 10 -4823 3 -47 9 -141 12 -210 4 -69 8
-134 10 -145 2 -11 7 -63 10 -115 3 -52 8 -115 11 -140 2 -25 11 -115 19 -200
124 -1256 394 -2218 905 -3225 328 -645 639 -1124 1059 -1625 58 -69 110 -130
116 -136 5 -6 44 -49 85 -95 80 -90 499 -512 590 -594 31 -28 85 -75 120 -105
35 -30 75 -65 89 -78 49 -45 279 -232 406 -329 833 -638 1800 -1150 2792
-1479 482 -159 1250 -334 1482 -337 103 -1 362 64 891 224 1093 331 2041 811
2875 1458 101 78 332 269 380 314 11 10 62 55 112 100 89 78 443 432 549 547
943 1028 1667 2338 2002 3620 76 288 153 664 186 900 38 272 57 423 71 560 3
30 8 75 10 100 13 118 16 938 20 5568 l5 4982 -430 0 -430 0 0 -2855 0 -2855
291 0 291 0 -5 -2332 c-3 -1283 -8 -2369 -12 -2413 -5 -69 -22 -241 -40 -395
-3 -25 -12 -94 -21 -155 -8 -60 -18 -126 -20 -145 -3 -19 -9 -60 -14 -90 -5
-30 -12 -73 -15 -95 -26 -177 -123 -601 -195 -850 -153 -531 -418 -1166 -685
-1640 -315 -560 -611 -991 -979 -1425 -164 -193 -247 -282 -491 -525 -274
-274 -425 -410 -690 -620 -993 -787 -2076 -1316 -3458 -1690 l-177 -48 -213
43 c-1135 229 -2204 655 -3202 1274 -420 260 -931 637 -1236 910 -285 257
-493 462 -734 727 -289 316 -693 878 -914 1272 -12 20 -31 54 -42 75 -84 147
-135 244 -228 432 -103 208 -125 255 -198 425 -133 307 -285 752 -378 1110
-97 373 -194 920 -240 1345 -3 30 -8 71 -10 90 -2 19 -7 58 -9 85 -3 28 -8 79
-11 115 -4 36 -8 76 -10 90 -2 14 -6 70 -10 125 -4 55 -8 118 -10 140 -3 37
-10 130 -20 268 -3 33 -7 116 -11 185 -3 70 -8 145 -11 167 -3 22 -8 829 -10
1793 l-4 1752 305 0 306 0 0 2855 0 2855 -426 0 -426 0 5 -4737z"/>
<path d="M3580 15925 l0 -2855 430 0 430 0 0 695 c0 428 4 695 9 695 6 0 12
-4 15 -9 3 -5 41 -22 83 -37 70 -26 89 -28 193 -27 87 1 129 7 174 22 33 12
61 21 63 21 1 0 3 -306 3 -680 l0 -680 425 0 425 0 0 320 0 320 23 4 c35 8
138 15 335 22 l182 7 0 -337 0 -336 430 0 430 0 0 365 0 365 48 1 c26 0 61 2
77 4 17 1 84 5 151 9 66 3 153 9 192 12 l72 6 0 -381 0 -381 430 0 430 0 0
405 0 405 33 1 c17 1 43 3 57 4 14 2 93 6 177 10 l152 8 60 -58 61 -58 0 -359
0 -358 430 0 430 0 0 421 0 422 88 -7 c48 -3 137 -9 197 -12 61 -4 121 -8 135
-9 14 -2 44 -3 68 -4 l42 -1 0 -405 0 -405 430 0 430 0 0 376 0 377 133 -7
c132 -6 235 -13 336 -21 30 -2 58 -10 63 -17 4 -7 8 -169 8 -360 l0 -348 430
0 430 0 0 335 0 335 78 -5 c42 -3 109 -7 147 -10 39 -2 120 -7 180 -10 61 -4
115 -8 122 -10 7 -2 12 -30 12 -77 0 -40 0 -182 0 -315 l1 -243 430 0 430 0 0
879 c0 691 3 881 13 888 20 16 166 71 236 88 65 17 273 47 278 41 10 -10 12
-160 12 -988 l1 -908 425 0 425 0 0 2855 0 2855 -425 0 -425 0 0 -1122 0
-1123 -34 50 c-42 63 -104 120 -153 140 -87 37 -218 63 -320 65 l-33 0 0 995
0 995 -430 0 -430 0 0 -699 0 -699 -62 -7 c-107 -11 -419 -1 -450 15 l-26 15
-1 165 c0 91 -1 400 -1 688 l0 522 -430 0 -430 0 0 -486 0 -486 -42 6 c-112
15 -176 19 -330 19 l-168 0 0 473 0 474 -430 0 -430 0 0 -534 c0 -461 -2 -535
-15 -540 -18 -7 -438 -6 -482 1 l-33 5 0 534 0 534 -430 0 -430 0 0 -521 c0
-451 -2 -520 -14 -516 -29 11 -162 36 -226 42 -36 4 -78 8 -95 10 -16 1 -69 3
-117 4 l-88 1 0 490 0 490 -430 0 -430 0 0 -465 0 -465 -32 5 c-51 8 -123 13
-258 21 -69 4 -132 8 -140 10 -8 1 -36 3 -62 3 l-48 1 0 445 0 445 -430 0
-430 0 0 -564 0 -565 -82 -24 c-125 -37 -122 -37 -295 -43 l-163 -7 0 602 0
601 -425 0 -425 0 -1 -910 c-1 -500 -2 -914 -3 -919 -3 -21 -18 -22 -83 -6
-133 34 -272 20 -386 -37 -58 -29 -72 -26 -66 13 1 8 1 429 0 937 l-1 922
-430 0 -430 0 0 -2855z m8218 1780 c108 -13 132 -17 227 -36 158 -31 342 -87
457 -138 l47 -22 3 -167 c6 -328 5 -2408 -1 -2439 l-6 -31 -40 15 c-167 62
-276 80 -489 81 -182 0 -253 -7 -506 -54 -172 -32 -215 -36 -365 -37 -158 -1
-444 9 -525 18 -59 7 -342 7 -395 0 -150 -20 -340 -74 -521 -150 -59 -25 -110
-45 -115 -45 -4 0 -8 118 -9 263 -1 144 -3 444 -5 667 -5 483 -7 1832 -3 1834
2 1 32 21 68 44 124 79 109 77 535 78 438 2 657 20 834 70 94 27 212 44 346
50 72 4 131 8 133 9 5 5 283 -4 330 -10z m-4403 -11 c22 -2 72 -9 110 -15 158
-23 190 -27 260 -34 33 -3 69 -8 80 -10 80 -16 305 -20 810 -15 252 3 359 -8
530 -56 50 -14 116 -37 148 -51 l57 -26 0 -1393 0 -1393 -107 70 c-124 80
-265 154 -373 195 l-75 29 -285 0 c-179 0 -324 -5 -390 -13 -152 -20 -450 -69
-560 -93 -347 -75 -323 -71 -535 -72 -189 -1 -258 6 -328 32 l-27 11 0 1348 0
1348 68 37 c38 20 122 55 188 77 l119 41 135 -6 c74 -3 153 -8 175 -11z m-873
-211 c13 -170 17 -2652 5 -2696 -9 -34 -29 -53 -157 -155 -52 -42 -112 -94
-132 -116 -21 -22 -40 -37 -43 -34 -11 11 -19 764 -19 1783 -1 1024 1 1172 14
1180 5 3 41 11 82 19 41 8 107 28 148 44 41 16 80 30 87 31 7 1 13 -21 15 -56z
m-514 -68 c9 -9 10 -39 17 -585 12 -972 14 -1356 15 -1998 l0 -642 77 -36 c43
-19 99 -51 126 -70 l48 -35 177 41 c249 58 487 106 672 135 84 13 244 35 295
40 33 3 74 8 90 10 17 2 71 6 120 10 50 3 115 8 145 11 79 6 511 5 600 -1 211
-15 388 -46 534 -94 l89 -29 65 24 c86 33 174 40 230 20 39 -14 42 -14 42 2 0
22 53 74 98 96 44 23 131 30 184 16 61 -17 102 -51 144 -123 20 -34 37 -63 38
-65 2 -1 47 12 102 29 259 80 259 80 774 84 784 7 852 8 950 21 52 7 129 15
170 19 41 4 83 9 93 11 24 7 419 7 497 -1 246 -22 416 -57 630 -128 l129 -43
6 26 c3 14 3 178 1 365 -7 457 -15 1056 -22 1780 -5 509 -8 697 -13 832 -1 14
-22 38 -62 68 -33 26 -59 49 -56 51 2 2 84 7 183 10 l181 7 -3 -229 c-1 -126
-5 -625 -8 -1109 -8 -1247 -17 -1967 -25 -2042 -1 -10 -22 -12 -83 -8 -46 2
-137 7 -203 10 -115 6 -174 9 -350 20 -44 2 -129 7 -190 10 -60 4 -130 8 -155
10 -25 2 -94 7 -155 10 -60 3 -132 8 -160 10 -27 3 -99 7 -160 10 -60 3 -130
8 -155 10 -25 2 -92 6 -150 10 -58 3 -130 8 -160 10 -30 3 -93 7 -140 10 -47
3 -114 7 -150 10 -65 5 -121 9 -300 20 -52 3 -111 8 -130 10 -19 2 -82 7 -140
10 -58 3 -121 8 -140 10 -19 2 -78 7 -130 10 -52 3 -111 8 -130 10 -19 2 -78
7 -130 11 -52 3 -106 8 -119 9 -19 2 -37 -11 -75 -52 -67 -73 -118 -107 -196
-131 -88 -28 -225 -25 -292 5 -64 29 -133 95 -155 149 -17 43 -19 45 -53 40
-19 -3 -71 -8 -115 -11 -44 -3 -98 -8 -120 -10 -22 -2 -76 -7 -120 -10 -44 -3
-102 -8 -130 -10 -27 -3 -84 -7 -125 -10 -41 -3 -131 -9 -200 -15 -69 -5 -163
-12 -210 -15 -47 -3 -110 -8 -140 -10 -30 -2 -93 -7 -140 -10 -47 -3 -105 -8
-130 -10 -25 -2 -92 -7 -150 -11 -58 -3 -121 -7 -140 -9 -19 -2 -82 -6 -140
-10 -58 -3 -121 -8 -140 -10 -19 -2 -84 -7 -145 -10 -190 -11 -208 -12 -295
-19 -83 -6 -118 -8 -330 -21 -58 -3 -123 -8 -145 -10 -22 -2 -105 -7 -185 -10
-80 -4 -151 -8 -157 -10 -10 -3 -13 24 -14 113 -1 64 -3 185 -4 267 -2 83 -6
472 -9 865 -9 1141 -18 2056 -20 2177 -1 105 0 112 19 117 26 5 145 -1 153 -9z
m6842 -220 c85 -63 163 -122 173 -131 17 -14 18 -71 14 -1325 -3 -720 -6
-1312 -9 -1314 -2 -2 -34 36 -72 85 -58 77 -110 132 -242 256 -22 21 -22 21
-23 390 0 203 -4 771 -7 1262 -4 515 -3 892 2 892 5 0 79 -52 164 -115z m820
-621 c79 -20 205 -15 355 16 125 25 344 37 402 21 63 -17 133 -69 186 -140 26
-35 46 -65 44 -67 -2 -2 -39 3 -82 11 -101 20 -244 20 -316 1 -30 -8 -107 -37
-170 -64 -156 -68 -177 -74 -268 -74 -91 0 -146 7 -216 29 -98 31 -95 25 -95
189 l0 144 48 -25 c26 -13 76 -32 112 -41z m-94 -1348 c113 -53 168 -66 292
-66 77 0 157 7 228 20 146 28 324 37 395 20 97 -23 236 -96 218 -115 -2 -2
-58 -7 -124 -10 -208 -11 -269 -28 -466 -126 -206 -103 -265 -117 -399 -97
-36 6 -95 22 -132 36 l-68 26 0 168 c0 92 1 168 3 168 2 0 25 -11 53 -24z
m-8706 -14 c66 -29 132 -92 165 -158 27 -52 30 -69 30 -149 0 -80 -3 -96 -29
-142 -80 -145 -222 -213 -372 -178 -257 60 -346 370 -160 557 39 38 94 72 146
89 42 14 171 3 220 -19z m3860 -376 c143 -36 255 -74 331 -111 47 -22 247
-163 267 -188 9 -10 -13 -39 -97 -128 l-108 -114 -54 22 c-173 71 -394 132
-542 149 -29 4 -55 8 -58 10 -14 8 -244 18 -404 18 -161 0 -388 -9 -465 -19
-122 -15 -298 -38 -315 -41 -11 -2 -49 -9 -85 -14 -36 -6 -99 -17 -140 -25
-41 -8 -124 -23 -185 -35 -60 -11 -121 -22 -135 -25 -413 -81 -490 -93 -490
-77 0 4 19 37 41 73 53 81 234 262 318 316 l64 42 306 1 c168 1 320 3 336 5
17 2 62 6 100 9 102 9 237 32 393 67 542 120 673 130 922 65z m3415 4 c118
-14 181 -32 290 -87 113 -56 159 -92 315 -243 l125 -121 -45 5 c-25 3 -90 12
-145 20 -414 63 -681 73 -970 38 -215 -27 -296 -31 -860 -37 -451 -5 -463 -6
-636 -35 -207 -35 -242 -36 -277 -11 -15 10 -82 46 -149 81 -67 35 -130 71
-139 81 -15 16 -14 19 11 41 52 45 304 137 480 175 94 20 376 24 575 8 69 -5
229 -9 355 -9 249 1 323 10 625 68 189 37 292 43 445 26z"/>
<path d="M9443 12689 c-130 -22 -260 -93 -393 -217 l-74 -70 -34 26 c-41 32
-107 38 -150 14 -17 -9 -45 -37 -64 -61 -23 -31 -57 -56 -116 -87 -101 -53
-173 -106 -229 -167 -172 -187 -153 -492 38 -613 46 -28 136 -64 143 -56 4 3
6 21 6 41 0 45 29 109 64 141 22 20 41 26 98 30 l70 5 33 -37 c63 -70 80 -122
47 -151 -20 -18 -44 -23 -157 -32 -90 -8 -121 -13 -290 -50 -322 -70 -398 -22
-456 288 -6 31 -13 57 -15 57 -3 0 -17 -26 -31 -57 -21 -46 -27 -78 -31 -154
-5 -121 7 -180 63 -295 81 -167 199 -255 373 -276 77 -10 96 -9 167 9 44 12
144 48 222 82 78 33 168 68 200 77 63 16 388 32 420 20 14 -6 2 -15 -52 -40
-58 -27 -186 -118 -245 -175 -41 -40 -165 -53 -288 -31 -36 6 -42 5 -38 -7 20
-51 129 -142 221 -184 80 -36 172 -47 260 -30 130 26 152 26 170 -2 32 -49
-20 -147 -112 -211 -60 -42 -61 -36 9 -111 21 -22 38 -43 38 -47 0 -4 -26 -14
-57 -23 -57 -17 -149 -16 -226 1 -27 6 -28 5 -21 -22 4 -15 22 -65 41 -111 18
-45 33 -85 33 -87 0 -3 -25 -16 -55 -30 -74 -33 -130 -73 -198 -140 -31 -31
-59 -56 -61 -56 -3 0 -38 48 -78 107 -88 131 -168 213 -268 277 -160 103 -182
120 -221 175 -22 31 -65 108 -96 171 -81 165 -100 195 -119 179 -49 -40 -78
-104 -95 -208 -10 -58 -18 -122 -19 -141 l-1 -35 -16 40 c-38 94 -195 295
-230 295 -6 0 -14 -24 -18 -52 -4 -29 -25 -123 -46 -208 -56 -219 -53 -311 12
-443 21 -41 25 -59 17 -62 -7 -2 -58 -6 -114 -10 -116 -6 -186 -24 -365 -95
-73 -29 -138 -49 -148 -45 -23 7 -41 46 -41 89 0 18 11 77 24 130 l25 96 -60
137 c-47 106 -60 145 -56 170 7 39 64 128 126 195 l46 49 56 -20 c36 -13 85
-21 135 -22 157 -2 171 0 202 26 41 34 36 57 -23 97 -54 36 -121 116 -108 129
4 4 32 10 61 13 70 7 91 13 131 43 37 28 114 140 105 154 -3 5 -14 9 -24 9
-47 0 -178 51 -218 85 -57 50 -63 75 -77 365 -18 351 -134 557 -384 683 l-84
42 -174 3 -173 3 -93 -34 c-50 -19 -171 -67 -268 -106 -97 -38 -196 -75 -220
-80 -67 -16 -312 -7 -387 13 -94 26 -101 22 -144 -63 -35 -68 -38 -81 -38
-157 0 -60 6 -98 20 -134 11 -28 20 -57 20 -64 0 -9 -201 -89 -567 -225 -751
-280 -725 -270 -745 -293 -44 -50 -2 -115 107 -164 38 -18 277 -74 313 -74 10
0 -28 -24 -103 -65 -38 -21 -95 -51 -125 -68 -178 -96 -197 -107 -595 -315
-121 -63 -322 -166 -448 -230 -125 -63 -230 -118 -233 -123 -11 -19 -13 -51
-2 -74 15 -34 81 -61 168 -70 130 -13 436 -12 543 3 124 16 367 69 537 116 69
19 127 33 129 30 5 -5 -24 -29 -198 -161 -262 -198 -591 -407 -1067 -676 -199
-113 -248 -146 -273 -188 -38 -62 0 -141 89 -188 204 -108 600 -20 1194 263
76 37 141 64 144 61 7 -6 -525 -536 -663 -660 -60 -54 -130 -118 -155 -141
-25 -23 -115 -103 -200 -179 -282 -251 -316 -294 -305 -401 23 -235 218 -276
538 -112 169 87 281 173 540 418 84 80 98 86 65 29 -114 -195 -247 -476 -358
-754 -139 -349 -235 -847 -233 -1206 1 -141 18 -221 57 -266 22 -25 31 -28 84
-28 48 1 69 6 108 30 63 38 83 78 174 345 39 113 77 221 84 240 8 19 49 132
91 250 117 325 128 355 211 568 76 196 206 488 225 507 11 11 10 -20 -16 -300
-12 -138 -19 -327 -19 -581 l-1 -281 -64 -79 c-88 -109 -254 -271 -326 -321
-74 -50 -87 -64 -75 -83 18 -29 294 -5 460 40 19 5 38 6 42 2 4 -4 17 -82 28
-172 26 -213 45 -333 71 -450 112 -510 422 -1206 668 -1500 154 -184 371 -348
464 -352 45 -2 83 23 90 59 5 27 1 129 -7 168 -14 69 -67 202 -218 550 -125
288 -253 665 -225 665 3 0 86 -20 184 -44 98 -25 192 -47 208 -50 17 -3 75
-14 130 -25 90 -17 139 -26 200 -36 66 -11 286 -46 315 -50 19 -3 94 -14 165
-25 160 -26 169 -27 226 -35 76 -11 80 -20 29 -66 -132 -121 -159 -150 -165
-180 -23 -102 140 -156 445 -147 138 5 173 9 325 46 94 23 173 42 178 42 11 0
8 -34 -7 -77 -39 -110 -22 -183 56 -237 118 -84 -88 1 -228 94 -43 28 -81 47
-85 43 -15 -15 -39 -128 -39 -183 1 -35 9 -75 25 -110 13 -30 22 -57 19 -59
-4 -4 -107 84 -268 233 -74 68 -186 143 -237 159 -145 45 -419 42 -477 -5 -10
-9 4 -28 61 -87 89 -92 157 -191 227 -331 93 -186 170 -283 305 -385 70 -53
188 -114 250 -129 l30 -8 -34 -27 -34 -28 23 -23 c30 -30 148 -83 235 -106 53
-14 108 -18 229 -19 l158 0 40 -65 c40 -65 40 -65 35 -150 -3 -47 -10 -102
-17 -124 l-12 -38 -44 6 c-64 8 -108 41 -274 201 -225 218 -268 240 -480 240
-102 0 -133 -4 -168 -19 -23 -10 -42 -22 -43 -25 0 -3 -2 -14 -4 -23 -5 -25
20 -54 84 -98 85 -57 130 -114 253 -318 l110 -184 -54 -57 c-112 -115 -119
-125 -100 -132 25 -10 321 5 364 17 10 3 36 -8 60 -25 24 -17 65 -35 92 -41
27 -6 53 -13 58 -16 11 -7 -3 -31 -52 -84 -47 -51 -63 -84 -55 -111 6 -19 44
-29 205 -55 183 -30 296 -56 385 -91 159 -61 255 -77 465 -76 107 0 192 8 306
29 23 4 170 53 205 68 12 5 20 -2 29 -26 20 -51 99 -158 158 -215 113 -108
227 -145 447 -146 240 -1 333 43 420 198 50 90 69 165 68 275 -1 122 -18 179
-93 310 -87 152 -88 178 -14 260 106 117 193 86 323 -115 102 -159 247 -266
428 -317 64 -18 105 -21 233 -22 253 0 400 38 585 153 22 14 57 20 135 24 185
10 308 64 435 192 167 168 244 349 319 745 31 164 73 258 143 319 25 23 53 41
62 41 13 1 13 3 -3 15 -23 17 -130 20 -237 6 -208 -27 -344 -186 -453 -533
-53 -166 -114 -297 -154 -328 -14 -12 -28 -17 -30 -11 -7 22 72 234 138 367
39 78 70 146 70 152 0 19 -72 35 -155 35 -68 1 -88 -4 -138 -28 -123 -61 -228
-184 -320 -375 -52 -109 -96 -170 -196 -276 l-72 -75 -192 193 c-195 196 -289
278 -426 371 l-76 52 42 3 c25 2 112 -14 212 -38 165 -39 176 -41 336 -41 91
1 194 5 228 11 129 21 260 69 325 121 26 20 26 20 4 26 -12 3 -22 9 -22 13 0
4 57 37 128 75 174 93 353 206 501 315 69 51 130 98 137 104 6 6 55 47 108 91
171 142 534 523 520 546 -4 8 -96 5 -194 -6 -215 -24 -434 -104 -606 -221 -79
-54 -291 -221 -344 -271 -19 -18 -39 -33 -43 -33 -5 0 -6 17 -3 38 3 20 7 53
8 72 l3 35 -57 -3 c-32 -2 -67 -5 -79 -7 -12 -3 -56 -7 -98 -11 -92 -8 -92 -8
59 97 58 40 169 124 248 188 78 64 189 153 245 199 339 275 643 402 1102 457
268 32 370 61 555 154 119 60 200 108 295 175 31 21 58 36 62 33 21 -22 -160
-593 -347 -1092 -217 -581 -235 -635 -212 -635 4 0 51 25 103 56 324 191 635
483 837 784 90 134 253 470 305 627 65 194 129 455 162 658 6 43 44 301 50
350 3 22 8 51 10 65 2 14 7 54 11 90 3 36 7 72 9 80 1 8 6 56 10 105 3 50 8
108 10 130 2 22 7 94 10 160 4 66 8 121 9 122 1 1 39 -183 85 -410 141 -703
184 -887 209 -887 51 0 221 295 301 523 29 83 68 221 77 277 3 14 9 50 15 80
18 101 24 223 23 465 -1 236 -11 362 -38 463 -15 60 -17 59 114 62 108 1 146
7 190 28 30 15 35 22 38 57 2 34 -9 60 -71 170 -55 98 -604 1058 -814 1424
-14 24 -21 42 -15 40 5 -2 58 -49 117 -104 160 -150 284 -235 404 -276 112
-39 311 -63 367 -45 22 7 44 45 44 74 -1 37 -42 103 -144 230 -120 150 -232
301 -355 475 -97 140 -261 388 -261 396 0 4 44 -1 98 -9 162 -27 271 -12 307
44 15 23 15 29 1 80 -17 56 -48 102 -101 146 -70 58 -162 150 -223 225 -37 44
-69 82 -72 85 -3 3 -51 66 -106 140 -113 149 -199 238 -289 296 l-60 38 55 11
c100 21 125 50 97 116 -18 42 -48 73 -162 164 -257 205 -578 382 -813 447 -93
26 -95 29 -57 110 20 42 25 69 25 131 0 88 5 85 -96 62 -154 -36 -314 -5 -594
115 -223 95 -284 111 -435 113 -213 3 -329 -20 -530 -105 -114 -48 -127 -51
-265 -64 -159 -14 -181 -19 -256 -57 -113 -57 -316 -248 -355 -332 -24 -51
-25 -173 -3 -300 21 -126 17 -166 -20 -184 -53 -25 -130 14 -181 93 -15 23
-20 25 -32 13 -7 -7 -18 -42 -24 -77 -10 -61 -9 -65 25 -136 l34 -73 -41 -6
c-208 -32 -270 -101 -292 -324 l-7 -73 44 27 c172 107 245 118 495 74 70 -12
183 -7 246 11 21 6 74 36 119 66 l80 55 35 -27 c47 -35 91 -99 99 -142 7 -37
-1 -56 -91 -217 -24 -44 -61 -125 -81 -180 -49 -135 -89 -208 -137 -251 -45
-42 -154 -94 -193 -94 -22 0 -25 3 -20 23 3 12 13 81 21 152 27 225 36 249
144 365 61 65 56 76 -34 74 -92 -3 -188 -50 -319 -158 l-49 -40 -26 30 c-67
74 -107 95 -208 108 -51 6 -52 3 -22 -87 24 -70 22 -142 -5 -198 -9 -19 -52
-74 -97 -124 -107 -119 -163 -192 -189 -246 -12 -24 -25 -51 -29 -59 -11 -21
-44 -28 -138 -29 l-81 -1 -1 120 0 121 51 -46 c27 -24 55 -42 60 -39 23 15 60
120 60 174 1 55 -14 146 -34 209 -9 29 -8 36 8 48 10 7 34 13 53 13 49 0 90
28 144 97 l45 59 -24 39 c-13 22 -36 74 -51 115 -36 101 -56 127 -119 155 -30
13 -57 31 -61 40 -3 9 0 42 7 73 21 96 22 109 4 126 -9 9 -15 18 -13 20 2 1
24 11 48 21 117 51 158 98 166 191 8 97 -38 132 -173 135 l-80 1 -7 72 c-7 69
-32 164 -55 206 -9 18 -4 24 45 56 73 46 129 106 161 170 21 44 25 66 25 145
1 107 -8 135 -59 199 -65 80 -131 132 -234 180 l-63 30 -3 -52 c-4 -61 -31
-98 -70 -98 -14 0 -47 14 -73 31 l-48 30 -39 -26 c-34 -22 -46 -25 -88 -20
-82 10 -153 34 -285 96 -70 32 -153 66 -185 75 -68 18 -291 27 -371 13z"/>
</g>
</svg>
